<?xml version="1.0" encoding="UTF-8" standalone="no"?>
<!-- Generator: Adobe Illustrator 26.3.1, SVG Export Plug-In . SVG Version: 6.00 Build 0)  -->

<svg
   version="1.1"
   id="Layer_1"
   x="0px"
   y="0px"
   viewBox="0 0 132.26395 27.901145"
   xml:space="preserve"
   sodipodi:docname="MrFOX Head Logo Final 2022 Final 2-02.svg"
   width="132.26395"
   height="27.901146"
   inkscape:version="1.1.2 (b8e25be8, 2022-02-05)"
   xmlns:inkscape="http://www.inkscape.org/namespaces/inkscape"
   xmlns:sodipodi="http://sodipodi.sourceforge.net/DTD/sodipodi-0.dtd"
   xmlns="http://www.w3.org/2000/svg"
   xmlns:svg="http://www.w3.org/2000/svg"><defs
   id="defs229" /><sodipodi:namedview
   id="namedview227"
   pagecolor="#ffffff"
   bordercolor="#666666"
   borderopacity="1.0"
   inkscape:pageshadow="2"
   inkscape:pageopacity="0.0"
   inkscape:pagecheckerboard="0"
   showgrid="false"
   inkscape:zoom="0.83942308"
   inkscape:cx="295.44101"
   inkscape:cy="-210.26346"
   inkscape:window-width="1682"
   inkscape:window-height="1017"
   inkscape:window-x="2236"
   inkscape:window-y="252"
   inkscape:window-maximized="0"
   inkscape:current-layer="Layer_1" />
<style
   type="text/css"
   id="style196">
	.st0{fill:#FCB315;}
</style>





<g
   id="g220"
   transform="matrix(0.1692004,0,0,0.1692004,-21.853924,-119.84634)">
	<path
   class="st0"
   d="m 502.13,873.21 h -52.29 c -1.62,0 -2.43,-1.13 -2.43,-3.4 V 711.73 c 0,-2.27 0.81,-3.41 2.43,-3.41 H 567.8 c 1.29,0 1.95,0.81 1.95,2.43 v 35.99 c 0,1.46 -0.65,2.19 -1.95,2.19 h -63.47 v 31.86 h 56.91 c 1.3,0 1.95,0.97 1.95,2.92 v 37.45 c 0,1.62 -0.65,2.43 -1.95,2.43 h -56.91 v 46.21 c -0.01,2.27 -0.74,3.41 -2.2,3.41 z"
   id="path208" />
	<path
   class="st0"
   d="m 847.14,870.54 c -6.81,-9.84 -16.29,-23.86 -28.45,-42.09 -5.19,8.59 -13.54,21.89 -25.05,39.88 -2.27,3.24 -4.05,4.86 -5.35,4.86 h -52.77 c -1.29,0 -1.78,-0.57 -1.46,-1.7 0.16,-0.81 0.57,-1.54 1.22,-2.19 l 55.2,-80.25 -56.66,-77.58 c -1.46,-2.11 -0.89,-3.16 1.7,-3.16 h 56.91 c 1.94,0 3.89,1.46 5.84,4.38 5.19,7.62 13.13,19.38 23.83,35.26 5.02,-7.94 12.65,-20.43 22.86,-37.45 1.13,-1.46 2.35,-2.19 3.65,-2.19 h 51.8 c 1.62,0 2.43,0.49 2.43,1.46 0,0.97 -0.65,2.19 -1.95,3.64 -10.86,15.87 -27.97,40.47 -51.31,73.82 l 59.58,81.1 c 1.13,1.46 1.7,2.52 1.7,3.16 0,0.97 -1.14,1.46 -3.4,1.46 -6.97,0 -16.62,0.08 -28.94,0.24 -12.49,0 -21.73,0 -27.72,0 -1.15,0.02 -2.37,-0.87 -3.66,-2.65 z"
   id="path210" />
	<path
   class="st0"
   d="m 721.57,730.44 c -15.96,-14.75 -35.35,-22.12 -58.16,-22.12 -23.26,0 -42.87,7.6 -58.84,22.81 -16.57,15.66 -24.86,35.5 -24.86,59.52 0,23.42 7.9,43.03 23.72,58.84 15.81,15.81 35.8,23.72 59.98,23.72 22.65,0 42.11,-7.68 58.38,-23.03 16.87,-15.96 25.31,-35.73 25.31,-59.29 0.01,-24.49 -8.5,-44.63 -25.53,-60.45 z m -58.16,94.81 c -19.05,0 -34.49,-15.44 -34.49,-34.49 0,-19.05 15.44,-34.49 34.49,-34.49 19.05,0 34.49,15.44 34.49,34.49 0,19.05 -15.44,34.49 -34.49,34.49 z"
   id="path212" />
	<path
   class="st0"
   d="m 246.94,708.61 c -1.87,0 -3.78,1.48 -4.24,3.3 l -20.43,79.9 c -0.46,1.81 -1.22,1.81 -1.69,0 L 200,711.9 c -0.47,-1.81 -2.38,-3.29 -4.25,-3.29 h -63.19 c -1.87,0 -3.4,1.53 -3.4,3.4 v 157.8 c 0,1.87 1.53,3.4 3.4,3.4 h 39.66 c 1.87,0 3.4,-1.53 3.4,-3.4 v -91.38 c 0,-1.87 0.38,-1.92 0.84,-0.11 l 23.38,91.59 c 0.46,1.81 2.37,3.3 4.24,3.3 h 34.43 c 1.87,0 3.78,-1.48 4.24,-3.3 l 23.43,-91.64 c 0.46,-1.81 0.84,-1.76 0.84,0.11 v 91.43 c 0,1.87 1.53,3.4 3.4,3.4 h 39.66 c 1.87,0 3.4,-1.53 3.4,-3.4 v -157.8 c 0,-1.87 -1.53,-3.4 -3.4,-3.4 z"
   id="path214" />
	<path
   class="st0"
   d="m 331.83,754.04 h 39.5 c 0.9,0 1.62,0.73 1.62,1.62 v 11.39 c 0,1.65 2.19,2.24 3.02,0.81 3.16,-5.43 6.4,-9.34 9.71,-11.75 4.37,-3.18 9.78,-4.77 16.21,-4.77 6.35,0 13.26,1.86 20.74,5.59 0.77,0.38 1.1,1.31 0.76,2.1 l -12.9,29.69 c -0.35,0.8 -1.26,1.18 -2.07,0.87 -4.71,-1.85 -8.49,-2.78 -11.35,-2.78 -5.99,0 -10.62,2.47 -13.91,7.41 -4.71,6.96 -7.07,19.97 -7.07,39.05 v 38.32 c 0,0.9 -0.73,1.62 -1.62,1.62 h -42.65 c -0.9,0 -1.62,-0.73 -1.62,-1.62 V 755.67 c 0.01,-0.9 0.73,-1.63 1.63,-1.63 z"
   id="path216" />
	<circle
   class="st0"
   cx="408.32999"
   cy="854.76001"
   r="18.440001"
   id="circle218" />
</g>


</svg>
